<?xml version="1.0" standalone="no"?>
<!DOCTYPE svg PUBLIC "-//W3C//DTD SVG 20010904//EN"
 "http://www.w3.org/TR/2001/REC-SVG-20010904/DTD/svg10.dtd">
<svg version="1.0" xmlns="http://www.w3.org/2000/svg"
 width="43.000000pt" height="43.000000pt" viewBox="0 0 43.000000 43.000000"
 preserveAspectRatio="xMidYMid meet">
<metadata>
Created by potrace 1.14, written by Peter Selinger 2001-2017
</metadata>
<g transform="translate(0.000000,43.000000) scale(0.100000,-0.100000)"
fill="#000000" stroke="none">
<path d="M7 413 c-4 -3 -7 -74 -7 -157 l0 -150 43 42 42 41 115 3 115 3 3 113
3 112 -154 0 c-85 0 -157 -3 -160 -7z"/>
<path d="M370 246 l0 -96 -141 0 -140 0 3 -32 3 -33 126 -3 126 -3 33 -34 c19
-19 38 -35 42 -35 5 0 7 73 6 163 l-3 162 -27 3 -28 3 0 -95z"/>
</g>
</svg>
