<?xml version="1.0" standalone="no"?>
<!DOCTYPE svg PUBLIC "-//W3C//DTD SVG 20010904//EN"
 "http://www.w3.org/TR/2001/REC-SVG-20010904/DTD/svg10.dtd">
<svg version="1.0" xmlns="http://www.w3.org/2000/svg"
 width="62.000000pt" height="62.000000pt" viewBox="0 0 62.000000 62.000000"
 preserveAspectRatio="xMidYMid meet">
<metadata>
Created by potrace 1.14, written by Peter Selinger 2001-2017
</metadata>
<g transform="translate(0.000000,62.000000) scale(0.100000,-0.100000)"
fill="#000000" stroke="none">
<path d="M205 613 c-85 -19 -143 -59 -174 -122 -30 -58 -34 -106 -16 -169 40
-136 194 -202 321 -137 58 30 54 29 54 7 0 -9 40 -57 89 -106 l89 -89 27 28
28 27 -84 84 c-46 47 -94 87 -106 90 -13 4 -23 7 -23 8 0 0 11 23 25 50 59
117 3 270 -115 314 -35 13 -91 20 -115 15z m95 -85 c58 -30 90 -77 90 -135 0
-95 -64 -163 -153 -163 -148 0 -220 166 -116 269 52 53 113 62 179 29z"/>
</g>
</svg>
