<?xml version="1.0" standalone="no"?>
<!DOCTYPE svg PUBLIC "-//W3C//DTD SVG 20010904//EN"
 "http://www.w3.org/TR/2001/REC-SVG-20010904/DTD/svg10.dtd">
<svg version="1.0" xmlns="http://www.w3.org/2000/svg"
 width="19.000000pt" height="45.000000pt" viewBox="0 0 19.000000 45.000000"
 preserveAspectRatio="xMidYMid meet">
<metadata>
Created by potrace 1.14, written by Peter Selinger 2001-2017
</metadata>
<g transform="translate(0.000000,45.000000) scale(0.100000,-0.100000)"
fill="#000000" stroke="none">
<path d="M70 278 c-59 -36 -85 -72 -32 -44 17 9 33 12 36 8 3 -5 -6 -51 -20
-102 -28 -109 -29 -129 -9 -136 17 -7 117 46 123 65 3 9 -5 8 -27 -3 -17 -9
-32 -13 -32 -9 -3 19 4 54 28 136 36 127 26 140 -67 85z"/>
</g>
</svg>
